<svg width="25" height="25" xmlns="http://www.w3.org/2000/svg">

 <g>
  <title>Layer 1</title>
  <path fill="#C1EBFF" id="svg_1" d="M22.31 4.305a8.48 8.48 0 01-2.684 1.073A4.245 4.245 0 0016.486 4a4.293 4.293 0 00-4.293 4.29c0 .34.037.669.077.997a12.199 12.199 0 01-8.814-4.521 4.805 4.805 0 00-.613 2.141c.033 1.514.79 2.83 1.916 3.594a4.13 4.13 0 01-1.913-.542.185.185 0 000 .074c-.005 2.055 1.476 3.79 3.446 4.21-.37.073-.746.122-1.15.147-.266-.025-.535-.05-.767-.074.517 1.686 2.101 2.917 3.988 2.99a9.028 9.028 0 01-5.366 1.834L2 19.08A12.258 12.258 0 008.59 21c7.886 0 12.203-6.547 12.185-12.184a4.103 4.103 0 000-.616 8.057 8.057 0 002.147-2.227 7.612 7.612 0 01-2.451.69 4.092 4.092 0 001.838-2.376" class="cls-1"/>
 </g>
</svg>
